#N canvas 827 239 527 327 12;
#X obj 99 499 delwrite~ karplus1 250;
#X obj 139 619 delread4~ karplus1;
#X obj 99 719 *~;
#X obj 99 1019 dac~;
#X obj 139 519 mtof;
#X msg 139 559 \$1 10;
#X obj 139 579 line~;
#X obj 99 737 *~ 5;
#X obj 99 679 lop~ 2500;
#X obj 99 659 *~;
#X msg 239 779 \$1 10;
#X obj 239 799 line~;
#X obj 19 679 hip~ 9000;
#X obj 99 859 *~;
#X msg 235 889 \$1 10;
#X obj 235 909 line~;
#N canvas 733 172 450 300 ftop~ 1;
#X obj 528 330 /~;
#X obj 528 272 sig~ 1000;
#X obj 539 219 inlet~ freq;
#X obj 528 379 outlet~;
#X connect 0 0 3 0 empty;
#X connect 1 0 0 0 empty;
#X connect 2 0 0 1 empty;
#X restore 139 599 pd ftop~;
#X obj 2 179 hsl 128 17 0 127 0 1 empty empty Notes -2 -8 0 10 #191919 #e1e1e1 #e1e1e1 10800 0;
#X obj 139 399 int;
#X obj 142 179 hsl 128 17 0 1 1 1 KarplusFactor empty Karplus\ factor -2 -8 0 10 #191919 #e1e1e1 #e1e1e1 -2.14748e+09 0;
#X obj 282 179 hsl 128 17 0 0.9 0 1 Volume empty Volume -2 -8 0 10 #191919 #e1e1e1 #e1e1e1 12700 0;
#X obj 239 759 r KarplusFactor;
#X obj 239 859 r Volume;
#X obj 439 599 delwrite~ amplitude 250;
#X obj 439 639 delread4~ amplitude;
#X msg 579 659 \$1 10;
#X obj 579 679 line~;
#X obj 439 659 *~;
#X obj 579 639 r Tail;
#X obj 422 179 hsl 128 17 0 1 0 1 Tail empty Tail -2 -8 0 10 #191919 #e1e1e1 #e1e1e1 12700 0;
#X msg 99 59 C;
#X msg 139 59 D;
#X msg 179 59 E;
#X msg 219 59 F;
#X msg 259 59 G;
#X msg 299 59 A;
#X msg 339 59 B;
#X msg 379 59 C';
#X msg 119 -1 C#;
#X msg 159 -1 D#;
#X msg 239 -1 F#;
#X msg 279 -1 G#;
#X msg 319 -1 A#;
#X msg 79 119 octave 2;
#X msg 159 119 octave 3;
#X msg 239 119 octave 4;
#X msg -1 119 octave 1;
#X obj -1 79 loadbang;
#X obj 139 219 b;
#X obj 79 139 b;
#X obj 159 139 b;
#X obj 239 139 b;
#X obj 319 19 b;
#X obj 279 19 b;
#X obj 239 19 b;
#X obj 159 19 b;
#X obj 119 19 b;
#X obj 99 77 b;
#X obj 139 77 b;
#X obj 179 77 b;
#X obj 219 77 b;
#X obj 259 77 b;
#X obj 299 77 b;
#X obj 339 77 b;
#X obj 379 77 b;
#X obj 159 139 +;
#X msg 319 119 octave 5;
#X obj 319 139 b;
#X obj 399 139 b;
#X msg 399 119 octave 6;
#X obj 479 139 b;
#X msg 479 119 octave 7;
#X obj 239 199 * 12;
#X obj 99 459 clip~ -0.9 0.9;
#X obj 99 879 clip~ -0.9 0.9;
#X obj 119 39 float 13;
#X obj 159 39 float 15;
#X obj 239 39 float 18;
#X obj 279 39 float 20;
#X obj 319 39 float 22;
#X obj 99 99 float 12;
#X obj 139 99 float 14;
#X obj 179 99 float 16;
#X obj 219 99 float 17;
#X obj 259 99 float 19;
#X obj 299 99 float 21;
#X obj 339 99 float 23;
#X obj 379 99 float 24;
#X obj 79 159 float 2;
#X obj 159 159 float 3;
#X obj 239 159 float 4;
#X obj 319 159 float 5;
#X obj 399 159 float 6;
#X obj 479 159 float 7;
#X obj -1 159 float 1;
#X obj 239 119 t b f;
#X obj 439 619 sig~ 10;
#X obj 99 419 adc~ 1;
#X obj 579 719 -~ 1;
#X obj 459 739 abs~;
#X obj 279 639 *~;
#X obj 195 677 *~ 2;
#X obj 219 259 loadbang;
#X obj 219 288 float 0.9;
#N canvas 733 172 450 300 ampTrack 1;
#X obj 79 77 pow~ 2;
#X obj 79 117 sqrt~;
#X obj 79 97 lop~ 12;
#X obj 99 39 clip 1 22;
#X obj 59 -1 inlet~;
#X obj 79 179 outlet~;
#X obj 99 -1 inlet (float) tracking accuracy (from 0 to 22);
#N canvas 733 172 450 300 ampTrack 0;
#X obj 299 479 pow~ 2;
#X obj 299 519 sqrt~;
#X obj 299 499 lop~ 12;
#X obj 319 459 clip 1 22;
#X obj -1445 -1125 inlet~;
#X obj -1105 -945 outlet~;
#X obj -1225 -1125 inlet (float) tracking accuracy (from 0 to 22);
#X connect 0 0 2 0 empty;
#X connect 1 0 5 0 empty;
#X connect 2 0 1 0 empty;
#X connect 3 0 2 1 empty;
#X connect 4 0 0 0 empty;
#X connect 6 0 3 0 empty;
#X restore 199 57 pd ampTrack;
#X connect 0 0 2 0 empty;
#X connect 1 0 5 0 empty;
#X connect 2 0 1 0 empty;
#X connect 3 0 2 1 empty;
#X connect 4 0 0 0 empty;
#X connect 6 0 3 0 empty;
#X restore 339 499 pd ampTrack;
#X obj 499 679 *~ 0.999;
#X obj 195 727 *~ 0.996;
#X connect 1 0 9 0 empty;
#X connect 2 0 7 0 empty;
#X connect 4 0 5 0 empty;
#X connect 5 0 6 0 empty;
#X connect 6 0 16 0 empty;
#X connect 7 0 13 0 empty;
#X connect 8 0 2 0 empty;
#X connect 9 0 0 0 empty;
#X connect 9 0 8 0 empty;
#X connect 10 0 11 0 empty;
#X connect 11 0 106 0 empty;
#X connect 12 0 13 0 empty;
#X connect 13 0 74 0 empty;
#X connect 14 0 15 0 empty;
#X connect 15 0 13 1 empty;
#X connect 16 0 1 0 empty;
#X connect 17 0 18 0 empty;
#X connect 18 0 4 0 empty;
#X connect 21 0 10 0 empty;
#X connect 22 0 14 0 empty;
#X connect 24 0 27 0 empty;
#X connect 25 0 26 0 empty;
#X connect 26 0 98 0 empty;
#X connect 26 0 105 0 empty;
#X connect 27 0 23 0 empty;
#X connect 27 0 2 1 empty;
#X connect 28 0 25 0 empty;
#X connect 30 0 57 0 empty;
#X connect 31 0 58 0 empty;
#X connect 32 0 59 0 empty;
#X connect 33 0 60 0 empty;
#X connect 34 0 61 0 empty;
#X connect 35 0 62 0 empty;
#X connect 36 0 63 0 empty;
#X connect 37 0 64 0 empty;
#X connect 38 0 56 0 empty;
#X connect 39 0 55 0 empty;
#X connect 40 0 54 0 empty;
#X connect 41 0 53 0 empty;
#X connect 42 0 52 0 empty;
#X connect 43 0 49 0 empty;
#X connect 44 0 50 0 empty;
#X connect 45 0 51 0 empty;
#X connect 46 0 48 0 empty;
#X connect 47 0 46 0 empty;
#X connect 48 0 94 0 empty;
#X connect 49 0 88 0 empty;
#X connect 50 0 89 0 empty;
#X connect 51 0 90 0 empty;
#X connect 52 0 79 0 empty;
#X connect 53 0 78 0 empty;
#X connect 54 0 77 0 empty;
#X connect 55 0 76 0 empty;
#X connect 56 0 75 0 empty;
#X connect 57 0 80 0 empty;
#X connect 58 0 81 0 empty;
#X connect 59 0 82 0 empty;
#X connect 60 0 83 0 empty;
#X connect 61 0 84 0 empty;
#X connect 62 0 85 0 empty;
#X connect 63 0 86 0 empty;
#X connect 64 0 87 0 empty;
#X connect 65 0 17 0 empty;
#X connect 66 0 67 0 empty;
#X connect 67 0 91 0 empty;
#X connect 68 0 92 0 empty;
#X connect 69 0 68 0 empty;
#X connect 70 0 93 0 empty;
#X connect 71 0 70 0 empty;
#X connect 72 0 95 0 empty;
#X connect 73 0 0 0 empty;
#X connect 73 0 12 0 empty;
#X connect 74 0 3 0 empty;
#X connect 74 0 3 1 empty;
#X connect 75 0 65 0 empty;
#X connect 76 0 65 0 empty;
#X connect 77 0 65 0 empty;
#X connect 78 0 65 0 empty;
#X connect 79 0 65 0 empty;
#X connect 80 0 65 0 empty;
#X connect 81 0 65 0 empty;
#X connect 82 0 65 0 empty;
#X connect 83 0 65 0 empty;
#X connect 84 0 65 0 empty;
#X connect 85 0 65 0 empty;
#X connect 86 0 65 0 empty;
#X connect 87 0 65 0 empty;
#X connect 88 0 72 0 empty;
#X connect 89 0 72 0 empty;
#X connect 90 0 72 0 empty;
#X connect 91 0 72 0 empty;
#X connect 92 0 72 0 empty;
#X connect 93 0 72 0 empty;
#X connect 94 0 72 0 empty;
#X connect 95 0 65 0 empty;
#X connect 95 1 65 1 empty;
#X connect 96 0 24 0 empty;
#X connect 97 0 73 0 empty;
#X connect 97 0 104 0 empty;
#X connect 98 0 99 0 empty;
#X connect 99 0 100 1 empty;
#X connect 100 0 101 0 empty;
#X connect 101 0 2 1 empty;
#X connect 102 0 103 0 empty;
#X connect 103 0 19 0 empty;
#X connect 103 0 20 0 empty;
#X connect 103 0 29 0 empty;
#X connect 104 0 23 0 empty;
#X connect 105 0 27 1 empty;
#X connect 106 0 9 1 empty;
