#N canvas 827 239 527 327 12;
#X obj 139 119 adc~;
#X obj 139 199 delwrite~ karplus1 250;
#X obj 179 319 delread4~ karplus1;
#X obj 139 399 *~;
#X obj 139 719 dac~;
#X obj 179 219 mtof;
#X msg 179 259 \$1 10;
#X obj 179 279 line~;
#X obj 139 437 *~ 5;
#X obj 139 379 lop~ 2500;
#X obj 139 359 *~;
#X msg 319 479 \$1 10;
#X obj 319 499 line~;
#X obj 59 379 hip~ 9000;
#X obj 139 539 *~;
#X msg 275 589 \$1 10;
#X obj 275 609 line~;
#X obj 140 506 clip~ -0.99 0.99;
#N canvas 733 172 450 300 ftop~ 1;
#X obj 528 330 /~;
#X obj 528 272 sig~ 1000;
#X obj 539 219 inlet~ freq;
#X obj 528 379 outlet~;
#X connect 0 0 3 0 empty;
#X connect 1 0 0 0 empty;
#X connect 2 0 0 1 empty;
#X restore 179 299 pd ftop~;
#X obj 182 79 hsl 128 17 0 127 0 0 empty empty Notes -2 -8 0 10 #191919 #e1e1e1 #e1e1e1 0 0;
#X obj 179 99 int;
#X obj 379 239 delread4~ karplus1;
#X obj 379 279 abs~;
#X obj 319 279 abs~;
#X obj 379 219 sig~ 2;
#X obj 235 427 *~ 0.999;
#X obj 339 319 *~ 0.55;
#X obj 322 79 hsl 128 17 0 0.9 0 0 KarplusFactor empty Karplus\ factor -2 -8 0 10 #191919 #e1e1e1 #e1e1e1 0 0;
#X obj 462 79 hsl 128 17 0 0.9 0 1 Volume empty Volume -2 -8 0 10 #191919 #e1e1e1 #e1e1e1 12700 0;
#X obj 319 459 r KarplusFactor;
#X obj 279 559 r Volume;
#X connect 0 0 1 0 empty;
#X connect 0 0 13 0 empty;
#X connect 0 0 23 0 empty;
#X connect 2 0 10 0 empty;
#X connect 3 0 8 0 empty;
#X connect 5 0 6 0 empty;
#X connect 6 0 7 0 empty;
#X connect 7 0 18 0 empty;
#X connect 8 0 17 0 empty;
#X connect 9 0 3 0 empty;
#X connect 10 0 1 0 empty;
#X connect 10 0 9 0 empty;
#X connect 11 0 12 0 empty;
#X connect 12 0 25 0 empty;
#X connect 13 0 17 0 empty;
#X connect 14 0 4 0 empty;
#X connect 14 0 4 1 empty;
#X connect 15 0 16 0 empty;
#X connect 16 0 14 1 empty;
#X connect 17 0 14 0 empty;
#X connect 18 0 2 0 empty;
#X connect 19 0 20 0 empty;
#X connect 20 0 5 0 empty;
#X connect 21 0 22 0 empty;
#X connect 22 0 26 0 empty;
#X connect 23 0 26 0 empty;
#X connect 24 0 21 0 empty;
#X connect 25 0 10 1 empty;
#X connect 26 0 3 1 empty;
#X connect 29 0 11 0 empty;
#X connect 30 0 15 0 empty;
