#N canvas 827 239 527 327 12;
#X obj 99 419 adc~;
#X obj 99 499 delwrite~ karplus1 250;
#X obj 139 619 delread4~ karplus1;
#X obj 99 699 *~;
#X obj 99 1019 dac~;
#X obj 139 519 mtof;
#X msg 139 559 \$1 10;
#X obj 139 579 line~;
#X obj 99 737 *~ 5;
#X obj 99 679 lop~ 2500;
#X obj 99 659 *~;
#X msg 239 779 \$1 10;
#X obj 239 799 line~;
#X obj 19 679 hip~ 9000;
#X obj 99 859 *~;
#X msg 235 889 \$1 10;
#X obj 235 909 line~;
#N canvas 733 172 450 300 ftop~ 1;
#X obj 528 330 /~;
#X obj 528 272 sig~ 1000;
#X obj 539 219 inlet~ freq;
#X obj 528 379 outlet~;
#X connect 0 0 3 0 empty;
#X connect 1 0 0 0 empty;
#X connect 2 0 0 1 empty;
#X restore 139 599 pd ftop~;
#X obj 142 359 hsl 128 17 0 127 0 0 empty empty Notes -2 -8 0 10 #191919 #e1e1e1 #e1e1e1 0 0;
#X obj 139 399 int;
#X obj 339 539 delread4~ karplus1;
#X obj 339 579 abs~;
#X obj 279 579 abs~;
#X obj 339 519 sig~ 2;
#X obj 195 727 *~ 0.999;
#X obj 282 359 hsl 128 17 0 0.9 0 0 KarplusFactor empty Karplus\ factor -2 -8 0 10 #191919 #e1e1e1 #e1e1e1 0 0;
#X obj 422 359 hsl 128 17 0 0.9 0 1 Volume empty Volume -2 -8 0 10 #191919 #e1e1e1 #e1e1e1 12700 0;
#X obj 239 759 r KarplusFactor;
#X obj 239 859 r Volume;
#X obj 299 659 delwrite~ amplitude 250;
#X obj 299 619 *~ 0.5;
#X obj 299 679 delread4~ amplitude;
#X msg 439 699 \$1 10;
#X obj 439 719 line~;
#X obj 299 699 *~;
#X obj 439 679 r Tail;
#X obj 562 359 hsl 128 17 0 1 0 1 Tail empty Tail -2 -8 0 10 #191919 #e1e1e1 #e1e1e1 12700 0;
#X msg 239 139 C;
#X msg 279 139 D;
#X msg 319 139 E;
#X msg 359 139 F;
#X msg 399 139 G;
#X msg 439 139 A;
#X msg 479 139 B;
#X msg 519 139 C';
#X msg 259 79 C#;
#X msg 299 79 D#;
#X msg 379 79 F#;
#X msg 419 79 G#;
#X msg 459 79 A#;
#X msg 219 199 octave 2;
#X msg 299 199 octave 3;
#X msg 379 199 octave 4;
#X msg 139 199 octave 1;
#X obj 239 179 12;
#X obj 279 179 14;
#X obj 319 179 16;
#X obj 359 179 17;
#X obj 399 179 19;
#X obj 439 179 21;
#X obj 479 179 23;
#X obj 519 179 24;
#X obj 259 119 13;
#X obj 299 119 15;
#X obj 379 119 18;
#X obj 419 119 20;
#X obj 459 119 22;
#X obj 139 159 loadbang;
#X obj 139 219 b;
#X obj 219 219 b;
#X obj 299 219 b;
#X obj 379 219 b;
#X obj 459 99 b;
#X obj 419 99 b;
#X obj 379 99 b;
#X obj 299 99 b;
#X obj 259 99 b;
#X obj 239 157 b;
#X obj 279 157 b;
#X obj 319 157 b;
#X obj 359 157 b;
#X obj 399 157 b;
#X obj 439 157 b;
#X obj 479 157 b;
#X obj 519 157 b;
#X obj 299 319 +;
#X msg 459 199 octave 5;
#X obj 459 219 b;
#X obj 539 219 b;
#X obj 139 239 1;
#X obj 219 239 2;
#X obj 299 239 3;
#X obj 379 239 4;
#X obj 459 239 5;
#X obj 539 239 6;
#X msg 539 199 octave 6;
#X obj 619 219 b;
#X msg 619 199 octave 7;
#X obj 319 299 * 12;
#X obj 359 719 *~ 0.996;
#X obj 99 439 *~ 2;
#X obj 99 459 clip~ -0.9 0.9;
#X obj 99 879 clip~ -0.9 0.9;
#X obj 619 239 7;
#X connect 0 0 100 0 empty;
#X connect 2 0 10 0 empty;
#X connect 3 0 8 0 empty;
#X connect 5 0 6 0 empty;
#X connect 6 0 7 0 empty;
#X connect 7 0 17 0 empty;
#X connect 8 0 14 0 empty;
#X connect 9 0 3 0 empty;
#X connect 10 0 1 0 empty;
#X connect 10 0 9 0 empty;
#X connect 11 0 12 0 empty;
#X connect 12 0 24 0 empty;
#X connect 13 0 14 0 empty;
#X connect 14 0 102 0 empty;
#X connect 15 0 16 0 empty;
#X connect 16 0 14 1 empty;
#X connect 17 0 2 0 empty;
#X connect 18 0 19 0 empty;
#X connect 19 0 5 0 empty;
#X connect 20 0 21 0 empty;
#X connect 21 0 30 0 empty;
#X connect 22 0 30 0 empty;
#X connect 23 0 20 0 empty;
#X connect 24 0 10 1 empty;
#X connect 27 0 11 0 empty;
#X connect 28 0 15 0 empty;
#X connect 30 0 29 0 empty;
#X connect 31 0 34 0 empty;
#X connect 32 0 33 0 empty;
#X connect 33 0 99 0 empty;
#X connect 34 0 29 0 empty;
#X connect 34 0 3 1 empty;
#X connect 35 0 32 0 empty;
#X connect 37 0 77 0 empty;
#X connect 38 0 78 0 empty;
#X connect 39 0 79 0 empty;
#X connect 40 0 80 0 empty;
#X connect 41 0 81 0 empty;
#X connect 42 0 82 0 empty;
#X connect 43 0 83 0 empty;
#X connect 44 0 84 0 empty;
#X connect 45 0 76 0 empty;
#X connect 46 0 75 0 empty;
#X connect 47 0 74 0 empty;
#X connect 48 0 73 0 empty;
#X connect 49 0 72 0 empty;
#X connect 50 0 69 0 empty;
#X connect 51 0 70 0 empty;
#X connect 52 0 71 0 empty;
#X connect 53 0 68 0 empty;
#X connect 54 0 85 0 empty;
#X connect 55 0 85 0 empty;
#X connect 56 0 85 0 empty;
#X connect 57 0 85 0 empty;
#X connect 58 0 85 0 empty;
#X connect 59 0 85 0 empty;
#X connect 60 0 85 0 empty;
#X connect 61 0 85 0 empty;
#X connect 62 0 85 0 empty;
#X connect 63 0 85 0 empty;
#X connect 64 0 85 0 empty;
#X connect 65 0 85 0 empty;
#X connect 66 0 85 0 empty;
#X connect 67 0 53 0 empty;
#X connect 68 0 89 0 empty;
#X connect 69 0 90 0 empty;
#X connect 70 0 91 0 empty;
#X connect 71 0 92 0 empty;
#X connect 72 0 66 0 empty;
#X connect 73 0 65 0 empty;
#X connect 74 0 64 0 empty;
#X connect 75 0 63 0 empty;
#X connect 76 0 62 0 empty;
#X connect 77 0 54 0 empty;
#X connect 78 0 55 0 empty;
#X connect 79 0 56 0 empty;
#X connect 80 0 57 0 empty;
#X connect 81 0 58 0 empty;
#X connect 82 0 59 0 empty;
#X connect 83 0 60 0 empty;
#X connect 84 0 61 0 empty;
#X connect 85 0 18 0 empty;
#X connect 86 0 87 0 empty;
#X connect 87 0 93 0 empty;
#X connect 88 0 94 0 empty;
#X connect 89 0 98 0 empty;
#X connect 90 0 98 0 empty;
#X connect 91 0 98 0 empty;
#X connect 92 0 98 0 empty;
#X connect 93 0 98 0 empty;
#X connect 94 0 98 0 empty;
#X connect 95 0 88 0 empty;
#X connect 96 0 103 0 empty;
#X connect 97 0 96 0 empty;
#X connect 98 0 85 1 empty;
#X connect 99 0 34 1 empty;
#X connect 100 0 101 0 empty;
#X connect 101 0 1 0 empty;
#X connect 101 0 13 0 empty;
#X connect 101 0 22 0 empty;
#X connect 102 0 4 0 empty;
#X connect 102 0 4 1 empty;
#X connect 103 0 98 0 empty;
